<?xml version="1.0" encoding="iso-8859-1"?>
<!-- Generator: Adobe Illustrator 19.0.0, SVG Export Plug-In . SVG Version: 6.00 Build 0)  -->
<svg version="1.1" id="Layer_1" xmlns="http://www.w3.org/2000/svg" xmlns:xlink="http://www.w3.org/1999/xlink" x="0px" y="0px"
	 viewBox="0 0 511.851 511.851" style="enable-background:new 0 0 511.851 511.851;" xml:space="preserve">
<rect x="192.026" y="335.806" style="fill:#CCD1D9;" width="127.81" height="106.5"/>
<path style="fill:#434A54;" d="M383.715,431.651c0-11.778-9.528-21.307-21.291-21.307H149.427c-11.762,0-21.291,9.528-21.291,21.307
	v21.305h255.578L383.715,431.651L383.715,431.651z"/>
<path style="fill:#4A89DC;" d="M430.654,80.374l-349.44-0.172c-11.715,0-78.288,244.606-80.757,256.071v21.306
	c-2.437,11.435,5.124,20.807,16.839,20.807l477.26,0.188c11.716,0,19.275-9.372,16.839-20.807l0.438-17.588
	C509.379,328.713,442.369,80.374,430.654,80.374L430.654,80.374z"/>
<path style="fill:#5D9CEC;" d="M430.654,59.084l-349.44-0.187c-11.715,0-23.321,9.372-25.773,20.837L0.457,336.273
	c-2.437,11.466,5.124,20.837,16.839,20.837l477.26,0.156c11.716,0,19.275-9.371,16.839-20.806L456.411,79.906
	C453.959,68.456,442.369,59.084,430.654,59.084L430.654,59.084z"/>
<path style="fill:#4A89DC;" d="M478.186,181.562l-80.662-0.188l-5.312-45.923l76.134,0.172l-4.562-21.291l-74.04-0.188
	l-6.404-55.249h-21.432l6.389,55.249h-60.746l-2.219-55.249h-21.306l2.202,55.249h-60.809l2.124-55.249h-21.321l-2.109,55.249
	h-61.075l6.154-55.249h-21.431l-6.154,55.249H48.068l-4.561,21.306h75.743l-5.108,45.923H33.666l-4.561,21.306h82.663l-5.92,53.25
	H17.686l-4.577,21.298h90.363l-8.888,79.881h21.431l8.888-79.881h72.978l-3.046,79.881h21.306l3.062-79.881h73.555l3.203,79.881
	h21.32l-3.201-79.881h73.103l9.247,79.881h21.431l-9.247-79.881l90.129,0.188l-4.561-21.314l-88.036-0.171l-6.154-53.25
	l82.771,0.172L478.186,181.562z M198.694,255.93h-71.416l5.92-53.25h67.542L198.694,255.93z M201.552,181.375h-65.98l5.108-45.923
	h62.621L201.552,181.375z M224.608,135.451h62.48l1.844,45.923h-66.074L224.608,135.451z M220.015,255.93l2.031-53.25h67.729
	l2.124,53.25H220.015z M308.395,135.451h62.355l5.326,45.923h-65.839L308.395,135.451z M313.237,255.93l-2.141-53.25h67.449
	l6.17,53.25H313.237z"/>
<g>
</g>
<g>
</g>
<g>
</g>
<g>
</g>
<g>
</g>
<g>
</g>
<g>
</g>
<g>
</g>
<g>
</g>
<g>
</g>
<g>
</g>
<g>
</g>
<g>
</g>
<g>
</g>
<g>
</g>
</svg>
